<?xml version="1.0" encoding="UTF-8"?><svg id="a" xmlns="http://www.w3.org/2000/svg" viewBox="0 0 1000 1000"><defs><style>.b{fill:#ed9c64;}</style></defs><path class="b" d="M853.19982,431.46092c-43.72984-12.64583-87.19439-9.92066-130.67869,3.15045-45.69825,13.73674-91.75698,26.32714-137.8881,38.55567-15.59035,4.13275-31.88241,5.62995-50.70485,8.81381,9.63753-36.97165,19.13987-69.02683,25.94755-101.64169,2.83415-13.57751,7.19903-31.98354-14.22973-36.90495-18.93888-4.34944-24.01154,11.30711-29.16622,24.26278-8.72518,21.93008-16.89507,44.07462-25.39407,66.0922-6.45402,16.71984-12.14652,43.10592-26.91432,54.70395-8.99894,7.06711-19.84344,6.92998-30.62381,7.97637-10.76802,1.04519-21.61968,2.77112-32.4432,3.89307-7.53229,.78079-73.74508,3.30729-74.80675,7.3009,3.77076-14.18428,5.70652-22.60357,8.24525-30.83781,23.89485-77.49839,48.3304-154.83528,71.52632-232.54061,5.2372-17.54459,17.13223-41.60195-7.39547-51.25023-27.28084-10.73147-33.6192,16.59861-40.38739,34.37976-32.29908,84.85665-93.35176,271.38296-108.39079,275.0684-5.10282,1.25049-10.65207,2.88439-18.50941,1.6721-31.27429-4.82523-62.61329-11.06468-92.11072-22.8149-28.0987-11.19304-75.49152-44.75419-87.17445-33.62489-8.52858,8.12443,6.19329,33.64336,19.39354,44.27244,14.51726,11.68955,29.93069,22.69752,47.34088,29.65716,34.17618,13.66177,70.00769,22.24395,105.3798,32.18034,7.5567,2.12276,11.81326,10.10541,9.37956,17.56778-5.45504,16.7266-10.34577,33.77958-14.76548,50.71204-7.04407,27.04898-14.20701,54.06851-20.93801,81.20261-7.63241,30.7638-30.42145,92.0316-1.78189,99.13998,39.28479,9.75054,53.53563-75.21479,67.49918-114.29944,12.79915-35.82543,25.46694-71.69915,37.68298-107.72821,4.06288-11.98275,9.8755-22.0914,23.23288-23.61579,20.3436-2.32167,41.08095-1.40489,61.52351-2.41903,6.26068-.31059,61.11477,.2105,62.14191-3.02424-11.62745,36.61827-23.4597,68.85064-31.92063,101.94103-4.95268,19.37013-10.02274,38.78165-12.87141,58.57331-5.74522,39.9159-11.96638,68.94796,10.04536,72.75864,30.09588,5.2102,42.12435-44.12682,51.7531-74.89464,15.27545-48.80934,28.94624-98.13748,45.25475-146.58939,3.19133-9.48172,14.13455-20.34773,23.6412-23.03012,23.14704-6.53113,46.58901-11.94366,70.07073-17.11793,22.29116-4.91193,29.89353-9.68827,69.29418-17.98314-17.15479,46.64921-38.00606,98.52952-54.34019,145.49015-10.0364,28.44159-19.6223,57.05105-28.23708,85.95843-7.01048,23.52395-21.0323,66.84626,.80812,72.21656,21.63132,5.31889,38.66851-20.68125,44.36373-36.06333,13.16123-35.5461,27.45626-70.74476,38.77793-106.86877,5.70576-18.20465,2.53344-19.36922,20.35193-15.53264,78.94002,16.99667,150.14157,.78752,205.28091-60.82296,47.34771-52.90437,20.86325-138.23477-47.26265-157.93522Zm9.05581,118.0569c-9.00822,13.47626-21.54242,26.79848-35.64026,34.28495-42.05355,22.33209-74.61536,31.19723-133.93007,18.28053,11.39026-38.45581,21.38016-65.77747,31.92342-99.92914,1.14217-3.69913,4.88812-8.01528,8.43992-9.33971,39.62873-14.77702,73.10218-22.47891,114.08749-6.42468,22.8509,8.95101,30.76049,39.73036,15.11951,63.12804Z"/></svg>